<svg xmlns="http://www.w3.org/2000/svg" width="40" height="36" viewBox="0 0 40 36" fill="none">
  <g filter="url(#filter0_d_1_713)">
    <path d="M7 4C5.34375 4 4 5.34375 4 7C4 7.94375 4.44375 8.83125 5.2 9.4L18.8 19.6C19.5125 20.1313 20.4875 20.1313 21.2 19.6L34.8 9.4C35.5562 8.83125 36 7.94375 36 7C36 5.34375 34.6562 4 33 4H7ZM4 11V24C4 26.2062 5.79375 28 8 28H32C34.2062 28 36 26.2062 36 24V11L22.4 21.2C20.975 22.2688 19.025 22.2688 17.6 21.2L4 11Z" fill="white"/>
  </g>
  <defs>
    <filter id="filter0_d_1_713" x="0" y="0" width="40" height="40" filterUnits="userSpaceOnUse" color-interpolation-filters="sRGB">
      <feFlood flood-opacity="0" result="BackgroundImageFix"/>
      <feColorMatrix in="SourceAlpha" type="matrix" values="0 0 0 0 0 0 0 0 0 0 0 0 0 0 0 0 0 0 127 0" result="hardAlpha"/>
      <feOffset dy="4"/>
      <feGaussianBlur stdDeviation="2"/>
      <feComposite in2="hardAlpha" operator="out"/>
      <feColorMatrix type="matrix" values="0 0 0 0 0 0 0 0 0 0 0 0 0 0 0 0 0 0 0.25 0"/>
      <feBlend mode="normal" in2="BackgroundImageFix" result="effect1_dropShadow_1_713"/>
      <feBlend mode="normal" in="SourceGraphic" in2="effect1_dropShadow_1_713" result="shape"/>
    </filter>
  </defs>
</svg>