<svg xmlns="http://www.w3.org/2000/svg" width="32" height="40" viewBox="0 0 32 40" fill="none">
  <g filter="url(#filter0_d_1_705)">
    <path d="M17.4812 30.3242C20.6875 26.4244 28 16.9723 28 11.6632C28 5.22413 22.625 0 16 0C9.375 0 4 5.22413 4 11.6632C4 16.9723 11.3125 26.4244 14.5188 30.3242C15.2875 31.2537 16.7125 31.2537 17.4812 30.3242ZM16 7.77545C17.0609 7.77545 18.0783 8.18504 18.8284 8.91413C19.5786 9.64322 20 10.6321 20 11.6632C20 12.6943 19.5786 13.6831 18.8284 14.4122C18.0783 15.1413 17.0609 15.5509 16 15.5509C14.9391 15.5509 13.9217 15.1413 13.1716 14.4122C12.4214 13.6831 12 12.6943 12 11.6632C12 10.6321 12.4214 9.64322 13.1716 8.91413C13.9217 8.18504 14.9391 7.77545 16 7.77545Z" fill="white"/>
  </g>
  <defs>
    <filter id="filter0_d_1_705" x="0" y="0" width="32" height="39.0212" filterUnits="userSpaceOnUse" color-interpolation-filters="sRGB">
      <feFlood flood-opacity="0" result="BackgroundImageFix"/>
      <feColorMatrix in="SourceAlpha" type="matrix" values="0 0 0 0 0 0 0 0 0 0 0 0 0 0 0 0 0 0 127 0" result="hardAlpha"/>
      <feOffset dy="4"/>
      <feGaussianBlur stdDeviation="2"/>
      <feComposite in2="hardAlpha" operator="out"/>
      <feColorMatrix type="matrix" values="0 0 0 0 0 0 0 0 0 0 0 0 0 0 0 0 0 0 0.25 0"/>
      <feBlend mode="normal" in2="BackgroundImageFix" result="effect1_dropShadow_1_705"/>
      <feBlend mode="normal" in="SourceGraphic" in2="effect1_dropShadow_1_705" result="shape"/>
    </filter>
  </defs>
</svg>