<svg xmlns="http://www.w3.org/2000/svg" width="37" height="37" viewBox="0 0 37 37" fill="none">
  <g filter="url(#filter0_d_1_709)">
    <path d="M13.3396 1.44665C12.9035 0.4254 11.7538 -0.118168 10.655 0.172833L5.67082 1.49057C4.68532 1.75412 4 2.62164 4 3.60994C4 17.1937 15.3616 28.2078 29.3739 28.2078C30.3934 28.2078 31.2882 27.5434 31.5601 26.5881L32.9194 21.7563C33.2196 20.6912 32.6589 19.5766 31.6054 19.1538L26.1682 16.9576C25.245 16.5842 24.1745 16.8423 23.5458 17.5945L21.2576 20.3013C17.2703 18.473 14.0419 15.3433 12.1559 11.478L14.9481 9.26525C15.7241 8.6503 15.9903 7.61807 15.6052 6.72311L13.3396 1.45214V1.44665Z" fill="white"/>
  </g>
  <defs>
    <filter id="filter0_d_1_709" x="0" y="0.0947266" width="37" height="36.113" filterUnits="userSpaceOnUse" color-interpolation-filters="sRGB">
      <feFlood flood-opacity="0" result="BackgroundImageFix"/>
      <feColorMatrix in="SourceAlpha" type="matrix" values="0 0 0 0 0 0 0 0 0 0 0 0 0 0 0 0 0 0 127 0" result="hardAlpha"/>
      <feOffset dy="4"/>
      <feGaussianBlur stdDeviation="2"/>
      <feComposite in2="hardAlpha" operator="out"/>
      <feColorMatrix type="matrix" values="0 0 0 0 0 0 0 0 0 0 0 0 0 0 0 0 0 0 0.25 0"/>
      <feBlend mode="normal" in2="BackgroundImageFix" result="effect1_dropShadow_1_709"/>
      <feBlend mode="normal" in="SourceGraphic" in2="effect1_dropShadow_1_709" result="shape"/>
    </filter>
  </defs>
</svg>